Gamer-thick.ufo
<glyph name="H" format="1">
  <advance width="711"/>
  <unicode hex="0048"/>
  <outline>
    <contour>
      <point x="36" y="0" type="line"/>
      <point x="203" y="0" type="line"/>
      <point x="203" y="680" type="line"/>
      <point x="36" y="680" type="line"/>
    </contour>
    <contour>
      <point x="169" y="276" type="line"/>
      <point x="567" y="276" type="line"/>
      <point x="567" y="430" type="line"/>
      <point x="169" y="430" type="line"/>
    </contour>
    <contour>
      <point x="486" y="0" type="line"/>
      <point x="655" y="0" type="line"/>
      <point x="655" y="680" type="line"/>
      <point x="486" y="680" type="line"/>
    </contour>
  </outline>
</glyph>
<glyph name="a" format="1">
  <advance width="549"/>
  <unicode hex="0061"/>
  <outline>
    <contour>
      <point x="339" y="0" type="line"/>
      <point x="325" y="131" type="line"/>
      <point x="343" y="127" type="line"/>
      <point x="324" y="127" type="line"/>
      <point x="324" y="290" type="line" smooth="yes"/>
      <point x="324" y="308"/>
      <point x="322" y="319"/>
      <point x="314" y="327" type="curve" smooth="yes"/>
      <point x="303" y="338"/>
      <point x="265" y="345"/>
      <point x="215" y="345" type="curve" smooth="yes"/>
      <point x="168" y="345"/>
      <point x="110" y="339"/>
      <point x="55" y="323" type="curve" name=""/>
      <point x="73" y="493" type="line" name=""/>
      <point x="121" y="512"/>
      <point x="191" y="522"/>
      <point x="272" y="522" type="curve" smooth="yes" name=""/>
      <point x="367" y="522"/>
      <point x="416" y="509"/>
      <point x="451" y="474" type="curve" smooth="yes"/>
      <point x="479" y="446"/>
      <point x="491" y="403"/>
      <point x="491" y="329" type="curve" smooth="yes"/>
      <point x="491" y="122" type="line"/>
      <point x="443" y="152" type="line"/>
      <point x="474" y="166"/>
      <point x="503" y="171"/>
      <point x="555" y="171" type="curve"/>
      <point x="555" y="0" type="line"/>
    </contour>
    <contour>
      <point x="192" y="-13" type="curve" smooth="yes" name=""/>
      <point x="127" y="-13"/>
      <point x="88" y="-5"/>
      <point x="63" y="20" type="curve" smooth="yes"/>
      <point x="39" y="43"/>
      <point x="24" y="91"/>
      <point x="24" y="146" type="curve" smooth="yes"/>
      <point x="24" y="195"/>
      <point x="37" y="237"/>
      <point x="63" y="262" type="curve" smooth="yes"/>
      <point x="88" y="287"/>
      <point x="127" y="295"/>
      <point x="192" y="295" type="curve" smooth="yes" name=""/>
      <point x="256" y="295"/>
      <point x="285" y="287"/>
      <point x="302" y="265" type="curve" smooth="yes"/>
      <point x="315.0910540500968" y="246.87392516140446"/>
      <point x="320.9787546668511" y="222.55237866187164"/>
      <point x="323" y="170" type="curve" name=""/>
      <point x="326" y="170" type="line"/>
      <point x="325" y="168" type="line"/>
      <point x="304" y="175"/>
      <point x="282" y="177"/>
      <point x="244" y="177" type="curve" smooth="yes" name=""/>
      <point x="207" y="177"/>
      <point x="196" y="171"/>
      <point x="196" y="150" type="curve" smooth="yes"/>
      <point x="196" y="129"/>
      <point x="207" y="123"/>
      <point x="244" y="123" type="curve" smooth="yes" name=""/>
      <point x="276" y="123"/>
      <point x="303" y="125"/>
      <point x="324" y="128" type="curve"/>
      <point x="325" y="127" type="line"/>
      <point x="325" y="64"/>
      <point x="316.71227063192964" y="29.71227063192968"/>
      <point x="299" y="12" type="curve" smooth="yes"/>
      <point x="281" y="-6"/>
      <point x="252" y="-13"/>
    </contour>
  </outline>
</glyph>
<glyph name="b" format="1">
  <advance width="585"/>
  <unicode hex="0062"/>
  <outline>
    <contour>
      <point x="47" y="0" type="line"/>
      <point x="47" y="583" type="line"/>
      <point x="81" y="554" type="line"/>
      <point x="7" y="554" type="line"/>
      <point x="7" y="705" type="line"/>
      <point x="215" y="705" type="line"/>
      <point x="215" y="139" type="line"/>
      <point x="211" y="0" type="line"/>
    </contour>
    <contour>
      <point x="354" y="-13" type="curve" smooth="yes" name="SP"/>
      <point x="257" y="-13"/>
      <point x="222" y="21"/>
      <point x="210" y="138" type="curve"/>
      <point x="210" y="149" type="line"/>
      <point x="234" y="141"/>
      <point x="254" y="138"/>
      <point x="273" y="140" type="curve" smooth="yes"/>
      <point x="294" y="140"/>
      <point x="303" y="139"/>
      <point x="315" y="139" type="curve" smooth="yes" name="SP"/>
      <point x="348" y="139"/>
      <point x="379" y="148"/>
      <point x="398" y="167" type="curve" smooth="yes"/>
      <point x="410" y="179"/>
      <point x="414" y="209"/>
      <point x="414" y="254" type="curve" smooth="yes"/>
      <point x="414" y="299"/>
      <point x="410" y="329"/>
      <point x="398" y="341" type="curve" smooth="yes"/>
      <point x="379" y="361"/>
      <point x="348" y="369"/>
      <point x="315" y="369" type="curve" smooth="yes" name="SP"/>
      <point x="303" y="369"/>
      <point x="294" y="369"/>
      <point x="273" y="369" type="curve" smooth="yes"/>
      <point x="254" y="371"/>
      <point x="234" y="368"/>
      <point x="210" y="360" type="curve"/>
      <point x="210" y="371" type="line"/>
      <point x="222" y="488"/>
      <point x="257" y="522"/>
      <point x="354" y="522" type="curve" smooth="yes" name="SP"/>
      <point x="429" y="522"/>
      <point x="480" y="495"/>
      <point x="521" y="454" type="curve" smooth="yes"/>
      <point x="554" y="421"/>
      <point x="565" y="358"/>
      <point x="565" y="254" type="curve" smooth="yes"/>
      <point x="565" y="150"/>
      <point x="554" y="88"/>
      <point x="521" y="55" type="curve" smooth="yes"/>
      <point x="480" y="14"/>
      <point x="429" y="-13"/>
    </contour>
  </outline>
</glyph>
<glyph name="c" format="1">
  <advance width="493"/>
  <unicode hex="0063"/>
  <outline>
    <contour>
      <point x="309" y="284" type="line"/>
      <point x="309" y="444" type="line"/>
      <point x="482" y="474" type="line"/>
      <point x="482" y="284" type="line"/>
    </contour>
    <contour>
      <point x="302" y="-13" type="curve" smooth="yes" name=""/>
      <point x="212" y="-13"/>
      <point x="134" y="9"/>
      <point x="100" y="43" type="curve" smooth="yes"/>
      <point x="61" y="82"/>
      <point x="39" y="157"/>
      <point x="39" y="247" type="curve" smooth="yes" name=""/>
      <point x="39.0" y="343.25"/>
      <point x="61.55164338649614" y="417.55164338649615"/>
      <point x="101" y="457" type="curve" smooth="yes"/>
      <point x="143" y="499"/>
      <point x="211" y="523"/>
      <point x="287" y="523" type="curve" smooth="yes" name=""/>
      <point x="355" y="523"/>
      <point x="433" y="503"/>
      <point x="482" y="474" type="curve"/>
      <point x="463" y="310" type="line"/>
      <point x="384" y="356"/>
      <point x="361" y="350"/>
      <point x="303" y="350" type="curve" smooth="yes" name=""/>
      <point x="261" y="350"/>
      <point x="234" y="345"/>
      <point x="223" y="334" type="curve" smooth="yes"/>
      <point x="211" y="322"/>
      <point x="204" y="300"/>
      <point x="204" y="258" type="curve" smooth="yes"/>
      <point x="204.0" y="216.1764705882353"/>
      <point x="209.7069061209916" y="188.2930938790084"/>
      <point x="219" y="179" type="curve" smooth="yes"/>
      <point x="231" y="167"/>
      <point x="274" y="158"/>
      <point x="320" y="158" type="curve" smooth="yes"/>
      <point x="372" y="158"/>
      <point x="425" y="167"/>
      <point x="477" y="186" type="curve" name=""/>
      <point x="473" y="19" type="line" name=""/>
      <point x="415" y="-3"/>
      <point x="363" y="-13"/>
    </contour>
  </outline>
</glyph>
<glyph name="d" format="1">
  <advance width="582"/>
  <unicode hex="0064"/>
  <outline>
    <contour>
      <point x="223" y="-13" type="curve" smooth="yes" name="SP"/>
      <point x="148" y="-13"/>
      <point x="97" y="14"/>
      <point x="56" y="55" type="curve" smooth="yes"/>
      <point x="22" y="88"/>
      <point x="11" y="150"/>
      <point x="11" y="255" type="curve" smooth="yes"/>
      <point x="11" y="359"/>
      <point x="22" y="421"/>
      <point x="56" y="454" type="curve" smooth="yes"/>
      <point x="97" y="495"/>
      <point x="148" y="522"/>
      <point x="223" y="522" type="curve" smooth="yes" name="SP"/>
      <point x="319" y="522"/>
      <point x="354" y="488"/>
      <point x="366" y="371" type="curve"/>
      <point x="367" y="360" type="line"/>
      <point x="343" y="368"/>
      <point x="323" y="371"/>
      <point x="304" y="369" type="curve" smooth="yes"/>
      <point x="282" y="369"/>
      <point x="273" y="369"/>
      <point x="262" y="369" type="curve" smooth="yes" name="SP"/>
      <point x="228" y="369"/>
      <point x="198" y="361"/>
      <point x="178" y="341" type="curve" smooth="yes"/>
      <point x="166" y="329"/>
      <point x="163" y="300"/>
      <point x="163" y="255" type="curve" smooth="yes"/>
      <point x="163" y="209"/>
      <point x="166" y="179"/>
      <point x="178" y="167" type="curve" smooth="yes"/>
      <point x="198" y="148"/>
      <point x="228" y="139"/>
      <point x="262" y="139" type="curve" smooth="yes" name="SP"/>
      <point x="273" y="139"/>
      <point x="282" y="140"/>
      <point x="304" y="140" type="curve" smooth="yes"/>
      <point x="323" y="138"/>
      <point x="343" y="141"/>
      <point x="367" y="149" type="curve"/>
      <point x="366" y="138" type="line"/>
      <point x="354" y="21"/>
      <point x="319" y="-13"/>
    </contour>
    <contour>
      <point x="365" y="0" type="line"/>
      <point x="362" y="139" type="line"/>
      <point x="362" y="583" type="line"/>
      <point x="395" y="554" type="line"/>
      <point x="297" y="554" type="line"/>
      <point x="297" y="705" type="line"/>
      <point x="529" y="705" type="line"/>
      <point x="529" y="0" type="line"/>
    </contour>
  </outline>
</glyph>
<glyph name="e" format="1">
  <advance width="507"/>
  <unicode hex="0065"/>
  <outline>
    <contour>
      <point x="301" y="-13" type="curve" smooth="yes" name=""/>
      <point x="222" y="-13"/>
      <point x="132" y="13"/>
      <point x="94" y="51" type="curve" smooth="yes"/>
      <point x="62" y="83"/>
      <point x="39" y="161"/>
      <point x="39" y="254" type="curve" smooth="yes" name=""/>
      <point x="39" y="349"/>
      <point x="67" y="433"/>
      <point x="103" y="468" type="curve" smooth="yes"/>
      <point x="136" y="501"/>
      <point x="209" y="529"/>
      <point x="283" y="529" type="curve" smooth="yes" name=""/>
      <point x="371" y="529"/>
      <point x="450" y="504"/>
      <point x="484" y="453" type="curve" smooth="yes"/>
      <point x="515" y="402"/>
      <point x="509" y="305"/>
      <point x="503" y="183" type="curve"/>
      <point x="119" y="183" type="line" name=""/>
      <point x="119" y="319" type="line" name=""/>
      <point x="388" y="319" type="line" name=""/>
      <point x="349" y="251" type="line" name="_p_cornerRadius:22.0"/>
      <point x="344" y="345"/>
      <point x="356" y="317"/>
      <point x="357" y="333" type="curve" smooth="yes"/>
      <point x="347" y="361"/>
      <point x="333" y="376"/>
      <point x="280" y="376" type="curve" smooth="yes" name=""/>
      <point x="238" y="376"/>
      <point x="227" y="369"/>
      <point x="216" y="358" type="curve" smooth="yes"/>
      <point x="206" y="349"/>
      <point x="204" y="327"/>
      <point x="204" y="284" type="curve" smooth="yes" name=""/>
      <point x="204" y="231" type="line" smooth="yes" name=""/>
      <point x="204" y="183"/>
      <point x="205" y="176"/>
      <point x="207" y="173" type="curve" smooth="yes"/>
      <point x="223" y="158"/>
      <point x="261" y="143"/>
      <point x="304" y="143" type="curve" smooth="yes"/>
      <point x="365" y="143"/>
      <point x="432" y="150"/>
      <point x="481" y="155" type="curve" name=""/>
      <point x="461" y="-3" type="line" name=""/>
      <point x="432" y="-7"/>
      <point x="359" y="-13"/>
    </contour>
  </outline>
</glyph>
<glyph name="f" format="1">
  <advance width="382"/>
  <unicode hex="0066"/>
  <outline>
    <contour>
      <point x="388" y="509" type="line"/>
      <point x="19" y="509" type="line"/>
      <point x="19" y="358" type="line"/>
      <point x="388" y="358" type="line"/>
    </contour>
    <contour>
      <point x="242" y="0" type="line"/>
      <point x="242" y="490" type="line" smooth="yes"/>
      <point x="242" y="526"/>
      <point x="244" y="532"/>
      <point x="254" y="542" type="curve" smooth="yes"/>
      <point x="265" y="553"/>
      <point x="290" y="560"/>
      <point x="322" y="560" type="curve" smooth="yes"/>
      <point x="347" y="560"/>
      <point x="378" y="555"/>
      <point x="407" y="543" type="curve"/>
      <point x="400" y="703" type="line"/>
      <point x="369" y="709"/>
      <point x="339" y="716"/>
      <point x="302" y="716" type="curve" smooth="yes"/>
      <point x="231" y="716"/>
      <point x="167" y="693"/>
      <point x="129" y="654" type="curve" smooth="yes"/>
      <point x="89" y="615"/>
      <point x="75" y="567"/>
      <point x="75" y="484" type="curve" smooth="yes"/>
      <point x="75" y="0" type="line"/>
    </contour>
  </outline>
</glyph>
<glyph name="g" format="1">
  <advance width="600"/>
  <unicode hex="0067"/>
  <outline>
    <contour>
      <point x="244" y="-233" type="curve" smooth="yes"/>
      <point x="177" y="-233"/>
      <point x="113" y="-222"/>
      <point x="75" y="-213" type="curve"/>
      <point x="69" y="-39" type="line"/>
      <point x="125" y="-63"/>
      <point x="192" y="-77"/>
      <point x="269" y="-77" type="curve" smooth="yes"/>
      <point x="315" y="-77"/>
      <point x="342" y="-72"/>
      <point x="354" y="-60" type="curve" smooth="yes"/>
      <point x="362" y="-52"/>
      <point x="367" y="-37"/>
      <point x="367" y="-21" type="curve" smooth="yes"/>
      <point x="367" y="377" type="line"/>
      <point x="370" y="515" type="line"/>
      <point x="534" y="515" type="line"/>
      <point x="534" y="-55" type="line" smooth="yes"/>
      <point x="534" y="-79"/>
      <point x="516" y="-123"/>
      <point x="484" y="-155" type="curve" smooth="yes"/>
      <point x="433" y="-206"/>
      <point x="349" y="-233"/>
    </contour>
    <contour>
      <point x="228" y="-13" type="curve" smooth="yes" name="SP"/>
      <point x="153" y="-13"/>
      <point x="102" y="14"/>
      <point x="61" y="55" type="curve" smooth="yes"/>
      <point x="27" y="89"/>
      <point x="16" y="150"/>
      <point x="16" y="255" type="curve" smooth="yes"/>
      <point x="16" y="359"/>
      <point x="27" y="421"/>
      <point x="61" y="454" type="curve" smooth="yes"/>
      <point x="102" y="495"/>
      <point x="153" y="522"/>
      <point x="228" y="522" type="curve" smooth="yes" name="SP"/>
      <point x="324" y="522"/>
      <point x="359" y="488"/>
      <point x="371" y="371" type="curve"/>
      <point x="372" y="360" type="line"/>
      <point x="348" y="368"/>
      <point x="328" y="371"/>
      <point x="309" y="369" type="curve" smooth="yes"/>
      <point x="287" y="369"/>
      <point x="278" y="369"/>
      <point x="267" y="369" type="curve" smooth="yes" name="SP"/>
      <point x="233" y="369"/>
      <point x="203" y="361"/>
      <point x="183" y="341" type="curve" smooth="yes"/>
      <point x="171" y="329"/>
      <point x="168" y="300"/>
      <point x="168" y="255" type="curve" smooth="yes"/>
      <point x="168" y="209"/>
      <point x="171" y="180"/>
      <point x="183" y="168" type="curve" smooth="yes"/>
      <point x="203" y="148"/>
      <point x="233" y="139"/>
      <point x="267" y="139" type="curve" smooth="yes" name="SP"/>
      <point x="278" y="139"/>
      <point x="287" y="141"/>
      <point x="309" y="141" type="curve" smooth="yes"/>
      <point x="328" y="139"/>
      <point x="348" y="141"/>
      <point x="372" y="150" type="curve"/>
      <point x="371" y="138" type="line"/>
      <point x="359" y="21"/>
      <point x="324" y="-13"/>
    </contour>
  </outline>
</glyph>
<glyph name="h" format="1">
  <advance width="583"/>
  <unicode hex="0068"/>
  <outline>
    <contour>
      <point x="47" y="0" type="line"/>
      <point x="215" y="0" type="line"/>
      <point x="215" y="705" type="line"/>
      <point x="-18" y="705" type="line"/>
      <point x="-18" y="554" type="line"/>
      <point x="81" y="554" type="line"/>
      <point x="47" y="583" type="line"/>
    </contour>
    <contour>
      <point x="519" y="0" type="line"/>
      <point x="519" y="332" type="line" smooth="yes"/>
      <point x="519" y="414"/>
      <point x="510" y="455"/>
      <point x="486" y="478" type="curve" smooth="yes"/>
      <point x="462" y="504"/>
      <point x="406" y="522"/>
      <point x="357" y="522" type="curve" smooth="yes" name="SP"/>
      <point x="257" y="522"/>
      <point x="221" y="483"/>
      <point x="210" y="372" type="curve"/>
      <point x="210" y="361" type="line"/>
      <point x="227" y="365"/>
      <point x="236" y="359"/>
      <point x="255" y="359" type="curve" smooth="yes"/>
      <point x="272" y="359"/>
      <point x="278" y="356"/>
      <point x="295" y="356" type="curve" smooth="yes" name="SP"/>
      <point x="324" y="356"/>
      <point x="336" y="353"/>
      <point x="344" y="345" type="curve" smooth="yes"/>
      <point x="349" y="340"/>
      <point x="351" y="338"/>
      <point x="351" y="333" type="curve" smooth="yes"/>
      <point x="351" y="0" type="line"/>
    </contour>
  </outline>
</glyph>
<glyph name="i" format="1">
  <advance width="322"/>
  <unicode hex="0069"/>
  <outline>
    <contour>
      <point x="254" y="0" type="line"/>
      <point x="254" y="515" type="line"/>
      <point x="30" y="515" type="line"/>
      <point x="30" y="364" type="line"/>
      <point x="120" y="364" type="line"/>
      <point x="87" y="393" type="line"/>
      <point x="87" y="0" type="line"/>
    </contour>
    <contour>
      <point x="50" y="653" type="curve" smooth="yes"/>
      <point x="50" y="572"/>
      <point x="78" y="545"/>
      <point x="161" y="545" type="curve" smooth="yes" name=""/>
      <point x="245" y="545"/>
      <point x="272" y="572"/>
      <point x="272" y="653" type="curve" smooth="yes"/>
      <point x="272" y="734"/>
      <point x="245" y="763"/>
      <point x="161" y="763" type="curve" smooth="yes" name=""/>
      <point x="78" y="763"/>
      <point x="50" y="734"/>
    </contour>
  </outline>
</glyph>
<glyph name="m" format="1">
  <advance width="937"/>
  <unicode hex="006D"/>
  <outline>
    <contour>
      <point x="269" y="0" type="line"/>
      <point x="269" y="376" type="line"/>
      <point x="266" y="376" type="line"/>
      <point x="266" y="509" type="line"/>
      <point x="37" y="509" type="line"/>
      <point x="37" y="358" type="line"/>
      <point x="135" y="358" type="line"/>
      <point x="102" y="363" type="line"/>
      <point x="102" y="0" type="line"/>
    </contour>
    <contour>
      <point x="573" y="0" type="line"/>
      <point x="573" y="373" type="line"/>
      <point x="523" y="373" type="line"/>
      <point x="573" y="329" type="line"/>
      <point x="566" y="431"/>
      <point x="559" y="460"/>
      <point x="539" y="479" type="curve" smooth="yes"/>
      <point x="515" y="505"/>
      <point x="459" y="522"/>
      <point x="412" y="522" type="curve" smooth="yes" name="SP"/>
      <point x="312" y="522"/>
      <point x="275" y="483"/>
      <point x="265" y="372" type="curve"/>
      <point x="264" y="361" type="line"/>
      <point x="282" y="365"/>
      <point x="291" y="359"/>
      <point x="310" y="359" type="curve" smooth="yes"/>
      <point x="326" y="359"/>
      <point x="333" y="356"/>
      <point x="350" y="356" type="curve" smooth="yes" name="SP"/>
      <point x="378" y="356"/>
      <point x="390" y="353"/>
      <point x="399" y="345" type="curve" smooth="yes"/>
      <point x="404" y="340"/>
      <point x="406" y="339"/>
      <point x="406" y="333" type="curve" smooth="yes"/>
      <point x="406" y="0" type="line"/>
    </contour>
    <contour>
      <point x="877" y="0" type="line"/>
      <point x="877" y="332" type="line" smooth="yes"/>
      <point x="877" y="412"/>
      <point x="868" y="456"/>
      <point x="846" y="477" type="curve" smooth="yes"/>
      <point x="821" y="504"/>
      <point x="766" y="522"/>
      <point x="716" y="522" type="curve" smooth="yes" name="SP"/>
      <point x="616" y="522"/>
      <point x="576" y="483"/>
      <point x="566" y="372" type="curve"/>
      <point x="568" y="361" type="line"/>
      <point x="586" y="365"/>
      <point x="595" y="359"/>
      <point x="614" y="359" type="curve" smooth="yes"/>
      <point x="630" y="359"/>
      <point x="637" y="356"/>
      <point x="654" y="356" type="curve" smooth="yes" name="SP"/>
      <point x="682" y="356"/>
      <point x="694" y="353"/>
      <point x="703" y="345" type="curve" smooth="yes"/>
      <point x="708" y="340"/>
      <point x="710" y="339"/>
      <point x="710" y="333" type="curve" smooth="yes"/>
      <point x="710" y="0" type="line"/>
    </contour>
  </outline>
</glyph>
<glyph name="n" format="1">
  <advance width="633"/>
  <unicode hex="006E"/>
  <outline>
    <contour>
      <point x="261" y="0" type="line"/>
      <point x="94" y="0" type="line"/>
      <point x="94" y="363" type="line"/>
      <point x="127" y="334" type="line"/>
      <point x="28" y="334" type="line"/>
      <point x="28" y="509" type="line"/>
      <point x="258" y="509" type="line"/>
      <point x="258" y="331" type="line"/>
      <point x="261" y="331" type="line"/>
    </contour>
    <contour>
      <point x="577" y="0" type="line"/>
      <point x="410" y="0" type="line"/>
      <point x="410" y="312" type="line" smooth="yes"/>
      <point x="410" y="319"/>
      <point x="408" y="324"/>
      <point x="403" y="329" type="curve" smooth="yes"/>
      <point x="394" y="338"/>
      <point x="374" y="342"/>
      <point x="341" y="342" type="curve" smooth="yes"/>
      <point x="325" y="342"/>
      <point x="310" y="341"/>
      <point x="294" y="338" type="curve" smooth="yes"/>
      <point x="279.0" y="335.0"/>
      <point x="268" y="331"/>
      <point x="259" y="326" type="curve"/>
      <point x="259" y="328" type="line"/>
      <point x="268" y="472"/>
      <point x="309" y="522"/>
      <point x="421" y="522" type="curve" smooth="yes" name="SP"/>
      <point x="474" y="522"/>
      <point x="510" y="510"/>
      <point x="535" y="485" type="curve" smooth="yes"/>
      <point x="564" y="456"/>
      <point x="577" y="408"/>
      <point x="577" y="332" type="curve" smooth="yes"/>
    </contour>
  </outline>
</glyph>
<glyph name="o" format="1">
  <advance width="590"/>
  <unicode hex="006F"/>
  <outline>
    <contour>
      <point x="295" y="140" type="curve" smooth="yes" name=""/>
      <point x="330" y="140"/>
      <point x="355" y="146"/>
      <point x="367" y="158" type="curve" smooth="yes"/>
      <point x="386.517436787844" y="177.51743678784402"/>
      <point x="393.0" y="204.91489361702128"/>
      <point x="393" y="256" type="curve" smooth="yes"/>
      <point x="393.0" y="304.021978021978"/>
      <point x="385.5067555233218" y="332.4932444766782"/>
      <point x="367" y="351" type="curve" smooth="yes"/>
      <point x="355" y="363"/>
      <point x="332" y="369"/>
      <point x="295" y="369" type="curve" smooth="yes" name=""/>
      <point x="258" y="369"/>
      <point x="235" y="363"/>
      <point x="223" y="351" type="curve" smooth="yes"/>
      <point x="204.49888465063822" y="332.4988846506382"/>
      <point x="197.0" y="304.04347826086956"/>
      <point x="197" y="255" type="curve" smooth="yes"/>
      <point x="197.0" y="204.93548387096772"/>
      <point x="203.47686742408996" y="177.52313257591004"/>
      <point x="223" y="158" type="curve" smooth="yes"/>
      <point x="235" y="146"/>
      <point x="260" y="140"/>
    </contour>
    <contour>
      <point x="295" y="-13" type="curve" smooth="yes" name=""/>
      <point x="213" y="-13"/>
      <point x="155" y="6"/>
      <point x="114" y="47" type="curve" smooth="yes"/>
      <point x="69" y="92"/>
      <point x="45" y="164"/>
      <point x="45" y="255" type="curve" smooth="yes"/>
      <point x="45" y="345"/>
      <point x="69" y="417"/>
      <point x="114" y="462" type="curve" smooth="yes"/>
      <point x="155" y="503"/>
      <point x="213" y="522"/>
      <point x="295" y="522" type="curve" smooth="yes" name=""/>
      <point x="377" y="522"/>
      <point x="435" y="503"/>
      <point x="476" y="462" type="curve" smooth="yes"/>
      <point x="521" y="417"/>
      <point x="545" y="345"/>
      <point x="545" y="255" type="curve" smooth="yes"/>
      <point x="545" y="164"/>
      <point x="521" y="92"/>
      <point x="476" y="47" type="curve" smooth="yes"/>
      <point x="435" y="6"/>
      <point x="377" y="-13"/>
    </contour>
  </outline>
</glyph>
<glyph name="p" format="1">
  <advance width="590"/>
  <unicode hex="0070"/>
  <outline>
    <contour>
      <point x="53" y="-217" type="line"/>
      <point x="220" y="-217" type="line"/>
      <point x="220" y="395" type="line"/>
      <point x="217" y="509" type="line"/>
      <point x="53" y="509" type="line"/>
    </contour>
    <contour>
      <point x="359" y="-13" type="curve" smooth="yes" name="SP"/>
      <point x="434" y="-13"/>
      <point x="485" y="14"/>
      <point x="526" y="55" type="curve" smooth="yes"/>
      <point x="560" y="88"/>
      <point x="571" y="150"/>
      <point x="571" y="254" type="curve" smooth="yes"/>
      <point x="571" y="358"/>
      <point x="560" y="421"/>
      <point x="526" y="454" type="curve" smooth="yes"/>
      <point x="485" y="495"/>
      <point x="434" y="522"/>
      <point x="359" y="522" type="curve" smooth="yes" name="SP"/>
      <point x="263" y="522"/>
      <point x="228" y="488"/>
      <point x="216" y="371" type="curve"/>
      <point x="215" y="360" type="line"/>
      <point x="239" y="368"/>
      <point x="259" y="371"/>
      <point x="278" y="369" type="curve" smooth="yes"/>
      <point x="300" y="369"/>
      <point x="309" y="369"/>
      <point x="320" y="369" type="curve" smooth="yes" name="SP"/>
      <point x="354" y="369"/>
      <point x="384" y="361"/>
      <point x="404" y="341" type="curve" smooth="yes"/>
      <point x="416" y="329"/>
      <point x="419" y="299"/>
      <point x="419" y="254" type="curve" smooth="yes"/>
      <point x="419" y="209"/>
      <point x="416" y="179"/>
      <point x="404" y="167" type="curve" smooth="yes"/>
      <point x="384" y="148"/>
      <point x="354" y="139"/>
      <point x="320" y="139" type="curve" smooth="yes" name="SP"/>
      <point x="309" y="139"/>
      <point x="300" y="140"/>
      <point x="278" y="140" type="curve" smooth="yes"/>
      <point x="259" y="138"/>
      <point x="239" y="141"/>
      <point x="215" y="149" type="curve"/>
      <point x="216" y="138" type="line"/>
      <point x="228" y="21"/>
      <point x="263" y="-13"/>
    </contour>
  </outline>
</glyph>
<glyph name="q" format="1">
  <advance width="587"/>
  <unicode hex="0071"/>
  <outline>
    <contour>
      <point x="367" y="-217" type="line"/>
      <point x="367" y="370" type="line"/>
      <point x="370" y="509" type="line"/>
      <point x="534" y="509" type="line"/>
      <point x="534" y="-217" type="line"/>
    </contour>
    <contour>
      <point x="228" y="-13" type="curve" smooth="yes" name="SP"/>
      <point x="153" y="-13"/>
      <point x="102" y="14"/>
      <point x="61" y="55" type="curve" smooth="yes"/>
      <point x="27" y="88"/>
      <point x="16" y="150"/>
      <point x="16" y="255" type="curve" smooth="yes"/>
      <point x="16" y="359"/>
      <point x="27" y="421"/>
      <point x="61" y="454" type="curve" smooth="yes"/>
      <point x="102" y="495"/>
      <point x="153" y="522"/>
      <point x="228" y="522" type="curve" smooth="yes" name="SP"/>
      <point x="324" y="522"/>
      <point x="359" y="488"/>
      <point x="371" y="371" type="curve"/>
      <point x="372" y="360" type="line"/>
      <point x="348" y="368"/>
      <point x="328" y="371"/>
      <point x="309" y="369" type="curve" smooth="yes"/>
      <point x="287" y="369"/>
      <point x="278" y="369"/>
      <point x="267" y="369" type="curve" smooth="yes" name="SP"/>
      <point x="233" y="369"/>
      <point x="203" y="361"/>
      <point x="183" y="341" type="curve" smooth="yes"/>
      <point x="171" y="329"/>
      <point x="168" y="300"/>
      <point x="168" y="255" type="curve" smooth="yes"/>
      <point x="168" y="209"/>
      <point x="171" y="179"/>
      <point x="183" y="167" type="curve" smooth="yes"/>
      <point x="203" y="148"/>
      <point x="233" y="139"/>
      <point x="267" y="139" type="curve" smooth="yes" name="SP"/>
      <point x="278" y="139"/>
      <point x="287" y="140"/>
      <point x="309" y="140" type="curve" smooth="yes"/>
      <point x="328" y="138"/>
      <point x="348" y="141"/>
      <point x="372" y="149" type="curve"/>
      <point x="371" y="138" type="line"/>
      <point x="359" y="21"/>
      <point x="324" y="-13"/>
    </contour>
  </outline>
</glyph>
<glyph name="r" format="1">
  <advance width="378"/>
  <unicode hex="0072"/>
  <outline>
    <contour>
      <point x="409" y="348" type="line"/>
      <point x="353" y="348"/>
      <point x="312" y="344"/>
      <point x="283" y="334" type="curve" smooth="yes"/>
      <point x="277" y="333"/>
      <point x="271" y="337"/>
      <point x="245" y="333" type="curve"/>
      <point x="246" y="343" type="line"/>
      <point x="273" y="497"/>
      <point x="295" y="529"/>
      <point x="414" y="529" type="curve"/>
    </contour>
    <contour>
      <point x="82" y="0" type="line"/>
      <point x="82" y="370" type="line"/>
      <point x="115" y="364" type="line"/>
      <point x="16" y="364" type="line"/>
      <point x="16" y="515" type="line"/>
      <point x="244" y="515" type="line"/>
      <point x="247" y="336" type="line"/>
      <point x="249" y="338" type="line"/>
      <point x="249" y="0" type="line"/>
    </contour>
  </outline>
</glyph>
<glyph name="s" format="1">
  <advance width="501"/>
  <unicode hex="0073"/>
  <outline>
    <contour>
      <point x="230" y="-13" type="curve" smooth="yes"/>
      <point x="391" y="-13"/>
      <point x="476" y="46"/>
      <point x="476" y="170" type="curve" smooth="yes"/>
      <point x="476" y="242"/>
      <point x="435" y="273"/>
      <point x="312" y="300" type="curve" smooth="yes"/>
      <point x="243" y="316" type="line" smooth="yes"/>
      <point x="207" y="324"/>
      <point x="195" y="333"/>
      <point x="195" y="355" type="curve" smooth="yes"/>
      <point x="195" y="373"/>
      <point x="197" y="380"/>
      <point x="208" y="383" type="curve" smooth="yes"/>
      <point x="214" y="383"/>
      <point x="228" y="382"/>
      <point x="253" y="382" type="curve" smooth="yes"/>
      <point x="333" y="382"/>
      <point x="365" y="371"/>
      <point x="449" y="321" type="curve"/>
      <point x="464" y="485" type="line"/>
      <point x="402" y="511"/>
      <point x="311" y="529"/>
      <point x="243" y="529" type="curve" smooth="yes"/>
      <point x="101" y="529"/>
      <point x="34" y="472"/>
      <point x="34" y="353" type="curve" smooth="yes"/>
      <point x="34" y="264"/>
      <point x="79" y="220"/>
      <point x="196" y="193" type="curve" smooth="yes"/>
      <point x="263" y="178" type="line" smooth="yes"/>
      <point x="325" y="164"/>
      <point x="314" y="174"/>
      <point x="314" y="160" type="curve" smooth="yes"/>
      <point x="314" y="144"/>
      <point x="300" y="140"/>
      <point x="232" y="140" type="curve" smooth="yes" name="SP"/>
      <point x="161" y="140"/>
      <point x="101" y="153"/>
      <point x="54" y="181" type="curve"/>
      <point x="45" y="15" type="line"/>
      <point x="116" y="-4"/>
      <point x="169" y="-13"/>
    </contour>
    <contour>
      <point x="291" y="315" type="line"/>
      <point x="464" y="315" type="line"/>
      <point x="464" y="485" type="line"/>
      <point x="291" y="489" type="line"/>
    </contour>
  </outline>
</glyph>
<glyph name="t" format="1">
  <advance width="431"/>
  <unicode hex="0074"/>
  <outline>
    <contour>
      <point x="316" y="-13" type="curve" smooth="yes"/>
      <point x="246" y="-13"/>
      <point x="182" y="10"/>
      <point x="143" y="49" type="curve" smooth="yes"/>
      <point x="105" y="87"/>
      <point x="90" y="140"/>
      <point x="90" y="225" type="curve" smooth="yes"/>
      <point x="86" y="592" type="line"/>
      <point x="252" y="637" type="line"/>
      <point x="257" y="223" type="line" smooth="yes"/>
      <point x="257" y="179"/>
      <point x="259" y="171"/>
      <point x="269" y="160" type="curve" smooth="yes"/>
      <point x="278" y="151"/>
      <point x="297" y="146"/>
      <point x="321" y="146" type="curve" smooth="yes"/>
      <point x="344" y="146"/>
      <point x="369" y="149"/>
      <point x="410" y="156" type="curve"/>
      <point x="409" y="-6" type="line"/>
      <point x="381" y="-10"/>
      <point x="350" y="-13"/>
    </contour>
    <contour>
      <point x="26" y="358" type="line"/>
      <point x="26" y="509" type="line"/>
      <point x="389" y="509" type="line"/>
      <point x="389" y="358" type="line"/>
    </contour>
  </outline>
</glyph>
<glyph name="u" format="1">
  <advance width="633"/>
  <unicode hex="0075"/>
  <outline>
    <contour>
      <point x="372" y="509" type="line"/>
      <point x="372" y="133" type="line"/>
      <point x="375" y="133" type="line"/>
      <point x="375" y="0" type="line"/>
      <point x="605" y="0" type="line"/>
      <point x="605" y="151" type="line"/>
      <point x="506" y="151" type="line"/>
      <point x="539" y="145" type="line"/>
      <point x="539" y="509" type="line"/>
    </contour>
    <contour>
      <point x="68" y="509" type="line"/>
      <point x="68" y="177" type="line" smooth="yes"/>
      <point x="68" y="92"/>
      <point x="78" y="50"/>
      <point x="104" y="26" type="curve" smooth="yes"/>
      <point x="129" y="3"/>
      <point x="184" y="-13"/>
      <point x="229" y="-13" type="curve" smooth="yes" name="SP"/>
      <point x="329" y="-13"/>
      <point x="366" y="26"/>
      <point x="376" y="137" type="curve"/>
      <point x="377" y="147" type="line"/>
      <point x="359" y="144"/>
      <point x="350" y="150"/>
      <point x="331" y="150" type="curve" smooth="yes"/>
      <point x="315" y="149"/>
      <point x="308" y="153"/>
      <point x="292" y="153" type="curve" smooth="yes" name="SP"/>
      <point x="263" y="153"/>
      <point x="251" y="155"/>
      <point x="243" y="164" type="curve" smooth="yes"/>
      <point x="237" y="169"/>
      <point x="235" y="170"/>
      <point x="235" y="175" type="curve" smooth="yes"/>
      <point x="235" y="509" type="line"/>
    </contour>
  </outline>
</glyph>
<glyph name="v" format="1">
  <advance width="512"/>
  <unicode hex="0076"/>
  <outline>
    <contour>
      <point x="138" y="0" type="line"/>
      <point x="298" y="0" type="line"/>
      <point x="207" y="262" type="line"/>
      <point x="139" y="509" type="line"/>
      <point x="-28" y="509" type="line"/>
    </contour>
    <contour>
      <point x="375" y="0" type="line"/>
      <point x="541" y="509" type="line"/>
      <point x="380" y="509" type="line"/>
      <point x="312" y="262" type="line"/>
      <point x="221" y="0" type="line"/>
    </contour>
  </outline>
</glyph>
<glyph name="a.001" format="1">
  <advance width="600"/>
  <outline>
    <contour>
      <point x="228" y="-13" type="curve" smooth="yes" name="SP"/>
      <point x="153" y="-13"/>
      <point x="102" y="14"/>
      <point x="61" y="55" type="curve" smooth="yes"/>
      <point x="27" y="89"/>
      <point x="16" y="150"/>
      <point x="16" y="255" type="curve" smooth="yes"/>
      <point x="16" y="359"/>
      <point x="27" y="421"/>
      <point x="61" y="454" type="curve" smooth="yes"/>
      <point x="102" y="495"/>
      <point x="153" y="522"/>
      <point x="228" y="522" type="curve" smooth="yes" name="SP"/>
      <point x="324" y="522"/>
      <point x="359" y="488"/>
      <point x="371" y="371" type="curve"/>
      <point x="372" y="360" type="line"/>
      <point x="348" y="368"/>
      <point x="328" y="371"/>
      <point x="309" y="369" type="curve" smooth="yes"/>
      <point x="287" y="369"/>
      <point x="278" y="369"/>
      <point x="267" y="369" type="curve" smooth="yes" name="SP"/>
      <point x="233" y="369"/>
      <point x="203" y="361"/>
      <point x="183" y="341" type="curve" smooth="yes"/>
      <point x="171" y="329"/>
      <point x="168" y="300"/>
      <point x="168" y="255" type="curve" smooth="yes"/>
      <point x="168" y="209"/>
      <point x="171" y="180"/>
      <point x="183" y="168" type="curve" smooth="yes"/>
      <point x="203" y="148"/>
      <point x="233" y="139"/>
      <point x="267" y="139" type="curve" smooth="yes" name="SP"/>
      <point x="278" y="139"/>
      <point x="287" y="141"/>
      <point x="309" y="141" type="curve" smooth="yes"/>
      <point x="328" y="139"/>
      <point x="348" y="141"/>
      <point x="372" y="150" type="curve"/>
      <point x="371" y="138" type="line"/>
      <point x="359" y="21"/>
      <point x="324" y="-13"/>
    </contour>
    <contour>
      <point x="534" y="0" type="line"/>
      <point x="370" y="0" type="line"/>
      <point x="367" y="138" type="line"/>
      <point x="367" y="377" type="line"/>
      <point x="370" y="515" type="line"/>
      <point x="534" y="515" type="line"/>
    </contour>
  </outline>
</glyph>
